# xmcd
#
# Track frame offsets:
#	150
#	12170
#	36615
#	50101
#	71028
#	87533
#	99726
#	119693
#	138566
#	150857
#
# Disc length: 2259 seconds
#
# Revision: 1
# Processed by: cddbd v1.5.2PL0 Copyright (c) Steve Scherf et al.
# Submitted via: audiograbber 1.83.01
#
DISCID=9108d10a
DTITLE=Hank Williams Jr. - Strong Stuff
DYEAR=1983
DGENRE=Country
TTITLE0=Gonna Go Huntin' Tonight
TTITLE1=La Grange
TTITLE2=O Whole Lot Of Hank
TTITLE3=Made In The Shade
TTITLE4=Leave Them Boys Alone
TTITLE5=The Girl In The Front Row At Fort Worth
TTITLE6=The Homecoming Queen
TTITLE7=Blue Jeans Blues
TTITLE8=Twodot Montana
TTITLE9=In Th Arms Of Cocaine
EXTD=
EXTT0=
EXTT1=
EXTT2=
EXTT3=
EXTT4=
EXTT5=
EXTT6=
EXTT7=
EXTT8=
EXTT9=
PLAYORDER=
